<?xml version="1.0" standalone="no"?><!DOCTYPE svg PUBLIC "-//W3C//DTD SVG 1.1//EN" "http://www.w3.org/Graphics/SVG/1.1/DTD/svg11.dtd"><svg class="icon" width="200px" height="200.00px" viewBox="0 0 1024 1024" version="1.1" xmlns="http://www.w3.org/2000/svg"><path d="M985.51808 473.92768H932.5568C914.51392 271.4624 753.0496 109.70112 550.7072 91.21792v-52.736a38.38976 38.38976 0 0 0-76.77952 0v52.67456C271.49312 109.35296 109.83424 270.90944 91.50464 473.2928H38.48192a38.37952 38.37952 0 1 0 0 76.77952h53.01248c18.31936 202.17856 179.6608 363.6224 381.7984 382.08512v53.3504a38.38976 38.38976 0 0 0 76.77952 0v-53.2992c202.21952-18.16576 363.75552-179.4048 382.37184-381.4912h53.06368a38.37952 38.37952 0 0 0 38.38976-38.38976 38.37952 38.37952 0 0 0-38.37952-38.4zM512 857.22112c-190.52544 0-345.53856-155.01312-345.53856-345.53856S321.47456 166.15424 512 166.15424 857.53856 321.16736 857.53856 511.6928 702.52544 857.22112 512 857.22112z"  /><path d="M512 511.68256m-166.36928 0a166.36928 166.36928 0 1 0 332.73856 0 166.36928 166.36928 0 1 0-332.73856 0Z"  /></svg>